<!-- Triad — Involute + 3 buttressed spokes (hub-wide) + 6 bolts, N=9 -->
<svg xmlns="http://www.w3.org/2000/svg" viewBox="-100 -100 200 200" width="200" height="200" fill="#ffffff">
  <path fill-rule="evenodd" d="M66.70,-13.21 L91.56,-8.98 L91.56,8.98 L66.70,13.21 L59.59,32.76 L75.91,51.98 L64.37,65.73 L42.61,52.99 L24.59,63.40 L24.74,88.61 L7.06,91.73 L-1.42,67.99 L-21.91,64.37 L-38.01,83.78 L-53.56,74.81 L-44.79,51.16 L-58.16,35.23 L-82.97,39.75 L-89.11,22.88 L-67.20,10.40 L-67.20,-10.40 L-89.11,-22.88 L-82.97,-39.75 L-58.16,-35.23 L-44.79,-51.16 L-53.56,-74.81 L-38.01,-83.78 L-21.91,-64.37 L-1.42,-67.99 L7.06,-91.73 L24.74,-88.61 L24.59,-63.40 L42.61,-52.99 L64.37,-65.73 L75.91,-51.98 L59.59,-32.76 Z M52.00,0.00 A52.00,52.00 0 0 1 -52.00,0.00 A52.00,52.00 0 0 1 52.00,0.00 Z M35.00,51.96 A5.00,5.00 0 0 1 25.00,51.96 A5.00,5.00 0 0 1 35.00,51.96 Z M-55.00,0.00 A5.00,5.00 0 0 1 -65.00,0.00 A5.00,5.00 0 0 1 -55.00,0.00 Z M35.00,-51.96 A5.00,5.00 0 0 1 25.00,-51.96 A5.00,5.00 0 0 1 35.00,-51.96 Z"/><polygon points="-11.00,-26.00 11.00,-26.00 8.00,-52.00 -8.00,-52.00" transform="rotate(0.00)"/><polygon points="-11.00,-26.00 11.00,-26.00 8.00,-52.00 -8.00,-52.00" transform="rotate(120.00)"/><polygon points="-11.00,-26.00 11.00,-26.00 8.00,-52.00 -8.00,-52.00" transform="rotate(240.00)"/><path fill-rule="evenodd" d="M26.00,0.00 A26.00,26.00 0 0 1 -26.00,0.00 A26.00,26.00 0 0 1 26.00,0.00 Z M11.30,14.72 A2.80,2.80 0 0 1 5.70,14.72 A2.80,2.80 0 0 1 11.30,14.72 Z M-14.20,0.00 A2.80,2.80 0 0 1 -19.80,0.00 A2.80,2.80 0 0 1 -14.20,0.00 Z M11.30,-14.72 A2.80,2.80 0 0 1 5.70,-14.72 A2.80,2.80 0 0 1 11.30,-14.72 Z M10.00,0.00 A10.00,10.00 0 0 1 -10.00,0.00 A10.00,10.00 0 0 1 10.00,0.00 Z"/>
</svg>
