<!-- Quadrant — Involute + 4 heavy spokes + 4 rim bolts, N=12 -->
<svg xmlns="http://www.w3.org/2000/svg" viewBox="-100 -100 200 200" width="200" height="200" fill="currentColor">
  <path fill-rule="evenodd" d="M71.17,-10.89 L91.72,-7.22 L91.72,7.22 L71.17,10.89 L67.08,26.15 L83.04,39.61 L75.82,52.11 L56.19,45.02 L45.02,56.19 L52.11,75.82 L39.61,83.04 L26.15,67.08 L10.89,71.17 L7.22,91.72 L-7.22,91.72 L-10.89,71.17 L-26.15,67.08 L-39.61,83.04 L-52.11,75.82 L-45.02,56.19 L-56.19,45.02 L-75.82,52.11 L-83.04,39.61 L-67.08,26.15 L-71.17,10.89 L-91.72,7.22 L-91.72,-7.22 L-71.17,-10.89 L-67.08,-26.15 L-83.04,-39.61 L-75.82,-52.11 L-56.19,-45.02 L-45.02,-56.19 L-52.11,-75.82 L-39.61,-83.04 L-26.15,-67.08 L-10.89,-71.17 L-7.22,-91.72 L7.22,-91.72 L10.89,-71.17 L26.15,-67.08 L39.61,-83.04 L52.11,-75.82 L45.02,-56.19 L56.19,-45.02 L75.82,-52.11 L83.04,-39.61 L67.08,-26.15 Z M56.00,0.00 A56.00,56.00 0 0 1 -56.00,0.00 A56.00,56.00 0 0 1 56.00,0.00 Z M49.75,45.25 A4.50,4.50 0 0 1 40.75,45.25 A4.50,4.50 0 0 1 49.75,45.25 Z M-40.75,45.25 A4.50,4.50 0 0 1 -49.75,45.25 A4.50,4.50 0 0 1 -40.75,45.25 Z M-40.75,-45.25 A4.50,4.50 0 0 1 -49.75,-45.25 A4.50,4.50 0 0 1 -40.75,-45.25 Z M49.75,-45.25 A4.50,4.50 0 0 1 40.75,-45.25 A4.50,4.50 0 0 1 49.75,-45.25 Z"/><rect x="-7.00" y="-56.00" width="14.00" height="34.00" transform="rotate(0.00)"/><rect x="-7.00" y="-56.00" width="14.00" height="34.00" transform="rotate(90.00)"/><rect x="-7.00" y="-56.00" width="14.00" height="34.00" transform="rotate(180.00)"/><rect x="-7.00" y="-56.00" width="14.00" height="34.00" transform="rotate(270.00)"/><path fill-rule="evenodd" d="M22.00,0.00 A22.00,22.00 0 0 1 -22.00,0.00 A22.00,22.00 0 0 1 22.00,0.00 Z M9.00,0.00 A9.00,9.00 0 0 1 -9.00,0.00 A9.00,9.00 0 0 1 9.00,0.00 Z"/>
</svg>
