<!-- Chainring — Involute + 5 thin spokes + 5 rim bolts, N=10 -->
<svg xmlns="http://www.w3.org/2000/svg" viewBox="-100 -100 200 200" width="200" height="200" fill="currentColor">
  <path fill-rule="evenodd" d="M68.68,-13.55 L91.54,-9.23 L91.54,9.23 L68.68,13.55 L63.52,29.41 L79.48,46.33 L68.63,61.27 L47.60,51.33 L34.11,61.13 L37.07,84.20 L19.50,89.91 L8.34,69.50 L-8.34,69.50 L-19.50,89.91 L-37.07,84.20 L-34.11,61.13 L-47.60,51.33 L-68.63,61.27 L-79.48,46.33 L-63.52,29.41 L-68.68,13.55 L-91.54,9.23 L-91.54,-9.23 L-68.68,-13.55 L-63.52,-29.41 L-79.48,-46.33 L-68.63,-61.27 L-47.60,-51.33 L-34.11,-61.13 L-37.07,-84.20 L-19.50,-89.91 L-8.34,-69.50 L8.34,-69.50 L19.50,-89.91 L37.07,-84.20 L34.11,-61.13 L47.60,-51.33 L68.63,-61.27 L79.48,-46.33 L63.52,-29.41 Z M60.00,0.00 A60.00,60.00 0 0 1 -60.00,0.00 A60.00,60.00 0 0 1 60.00,0.00 Z M57.40,38.79 A4.00,4.00 0 0 1 49.40,38.79 A4.00,4.00 0 0 1 57.40,38.79 Z M-16.40,62.77 A4.00,4.00 0 0 1 -24.40,62.77 A4.00,4.00 0 0 1 -16.40,62.77 Z M-62.00,0.00 A4.00,4.00 0 0 1 -70.00,0.00 A4.00,4.00 0 0 1 -62.00,0.00 Z M-16.40,-62.77 A4.00,4.00 0 0 1 -24.40,-62.77 A4.00,4.00 0 0 1 -16.40,-62.77 Z M57.40,-38.79 A4.00,4.00 0 0 1 49.40,-38.79 A4.00,4.00 0 0 1 57.40,-38.79 Z"/><rect x="-3.00" y="-60.00" width="6.00" height="42.00" transform="rotate(0.00)"/><rect x="-3.00" y="-60.00" width="6.00" height="42.00" transform="rotate(72.00)"/><rect x="-3.00" y="-60.00" width="6.00" height="42.00" transform="rotate(144.00)"/><rect x="-3.00" y="-60.00" width="6.00" height="42.00" transform="rotate(216.00)"/><rect x="-3.00" y="-60.00" width="6.00" height="42.00" transform="rotate(288.00)"/><path fill-rule="evenodd" d="M18.00,0.00 A18.00,18.00 0 0 1 -18.00,0.00 A18.00,18.00 0 0 1 18.00,0.00 Z M7.00,0.00 A7.00,7.00 0 0 1 -7.00,0.00 A7.00,7.00 0 0 1 7.00,0.00 Z"/>
</svg>
