<!-- Hexflex — Involute + 6 tapered spokes (rim-wide) + 6 bolts, N=12 -->
<svg xmlns="http://www.w3.org/2000/svg" viewBox="-100 -100 200 200" width="200" height="200" fill="currentColor">
  <path fill-rule="evenodd" d="M69.25,-10.23 L91.75,-6.74 L91.75,6.74 L69.25,10.23 L65.08,25.77 L82.83,40.04 L76.09,51.71 L54.86,43.48 L43.48,54.86 L51.71,76.09 L40.04,82.83 L25.77,65.08 L10.23,69.25 L6.74,91.75 L-6.74,91.75 L-10.23,69.25 L-25.77,65.08 L-40.04,82.83 L-51.71,76.09 L-43.48,54.86 L-54.86,43.48 L-76.09,51.71 L-82.83,40.04 L-65.08,25.77 L-69.25,10.23 L-91.75,6.74 L-91.75,-6.74 L-69.25,-10.23 L-65.08,-25.77 L-82.83,-40.04 L-76.09,-51.71 L-54.86,-43.48 L-43.48,-54.86 L-51.71,-76.09 L-40.04,-82.83 L-25.77,-65.08 L-10.23,-69.25 L-6.74,-91.75 L6.74,-91.75 L10.23,-69.25 L25.77,-65.08 L40.04,-82.83 L51.71,-76.09 L43.48,-54.86 L54.86,-43.48 L76.09,-51.71 L82.83,-40.04 L65.08,-25.77 Z M56.00,0.00 A56.00,56.00 0 0 1 -56.00,0.00 A56.00,56.00 0 0 1 56.00,0.00 Z M66.50,0.00 A3.50,3.50 0 0 1 59.50,0.00 A3.50,3.50 0 0 1 66.50,0.00 Z M35.00,54.56 A3.50,3.50 0 0 1 28.00,54.56 A3.50,3.50 0 0 1 35.00,54.56 Z M-28.00,54.56 A3.50,3.50 0 0 1 -35.00,54.56 A3.50,3.50 0 0 1 -28.00,54.56 Z M-59.50,0.00 A3.50,3.50 0 0 1 -66.50,0.00 A3.50,3.50 0 0 1 -59.50,0.00 Z M-28.00,-54.56 A3.50,3.50 0 0 1 -35.00,-54.56 A3.50,3.50 0 0 1 -28.00,-54.56 Z M35.00,-54.56 A3.50,3.50 0 0 1 28.00,-54.56 A3.50,3.50 0 0 1 35.00,-54.56 Z"/><polygon points="-2.50,-16.00 2.50,-16.00 5.50,-56.00 -5.50,-56.00" transform="rotate(0.00)"/><polygon points="-2.50,-16.00 2.50,-16.00 5.50,-56.00 -5.50,-56.00" transform="rotate(60.00)"/><polygon points="-2.50,-16.00 2.50,-16.00 5.50,-56.00 -5.50,-56.00" transform="rotate(120.00)"/><polygon points="-2.50,-16.00 2.50,-16.00 5.50,-56.00 -5.50,-56.00" transform="rotate(180.00)"/><polygon points="-2.50,-16.00 2.50,-16.00 5.50,-56.00 -5.50,-56.00" transform="rotate(240.00)"/><polygon points="-2.50,-16.00 2.50,-16.00 5.50,-56.00 -5.50,-56.00" transform="rotate(300.00)"/><path fill-rule="evenodd" d="M16.00,0.00 A16.00,16.00 0 0 1 -16.00,0.00 A16.00,16.00 0 0 1 16.00,0.00 Z M6.00,0.00 A6.00,6.00 0 0 1 -6.00,0.00 A6.00,6.00 0 0 1 6.00,0.00 Z"/>
</svg>
